<?xml version="1.0" encoding="utf-8"?>
<!-- Generator: Adobe Illustrator 23.0.0, SVG Export Plug-In . SVG Version: 6.00 Build 0)  -->
<svg version="1.1" id="Layer_1" xmlns="http://www.w3.org/2000/svg" xmlns:xlink="http://www.w3.org/1999/xlink" x="0px" y="0px"
	 viewBox="0 0 683.5 829" style="enable-background:new 0 0 683.5 829;" xml:space="preserve">
<path style="fill:#FFFFFF;" d="M563.7,440.5c-1-104.9,85.7-155.3,89.6-157.7c-48.8-71.3-124.6-81.1-151.6-82.2
	c-64.5-6.6-125.9,38-158.7,38s-83.3-37.1-136.8-36c-70.4,1-135.3,40.9-171.6,103.9C-38.4,433.1,16,621.1,87.3,724
	c34.9,50.3,76.3,107,130.9,104.9c52.6-2.1,72.4-34,135.8-34s81.3,34,136.8,33c56.5-1.1,92.3-51.4,126.9-101.9
	c39.8-58.5,56.3-115,57.3-118C673.7,607.5,564.9,565.8,563.7,440.5"/>
<path style="fill:#FFFFFF;" d="M459.4,132.4c29-35.1,48.5-83.8,43.2-132.4c-41.7,1.7-92.2,27.8-122.1,62.9
	c-26.8,31-50.3,80.6-43.9,128.2C382.9,194.7,430.5,167.4,459.4,132.4"/>
</svg>
