<?xml version="1.0" encoding="utf-8"?>
<!-- Generator: Adobe Illustrator 23.0.0, SVG Export Plug-In . SVG Version: 6.00 Build 0)  -->
<svg version="1.1" id="Layer_1" xmlns="http://www.w3.org/2000/svg" xmlns:xlink="http://www.w3.org/1999/xlink" x="0px" y="0px"
	 viewBox="0 0 683.5 829" style="enable-background:new 0 0 683.5 829;" xml:space="preserve">
<g>
	<path style="fill:#FFFFFF;" d="M61.77,762.64c16.72,2.97,36.47-0.69,57.59-12.06l370.36-199.41L381.98,443.93L61.77,762.64z"/>
	<path style="fill:#FFFFFF;" d="M25.35,88.96c-9.25,13.16-14.57,31.27-14.57,53.59v543.18c0,21.73,5.04,39.48,13.82,52.53
		l326.55-325.01L25.35,88.96z"/>
	<path style="fill:#FFFFFF;" d="M489.02,276.01L119.43,77.57c-20.53-11.02-39.77-14.8-56.18-12.27l318.73,317.25L489.02,276.01z"/>
	<path style="fill:#FFFFFF;" d="M529.75,529.62l106.94-57.59c59.73-32.15,59.69-84.7-0.07-116.79l-107.53-57.73L412.81,413.24
		L529.75,529.62z"/>
</g>
</svg>
