<svg width="25" height="25" viewBox="0 0 25 25" fill="none" xmlns="http://www.w3.org/2000/svg">
<path fill-rule="evenodd" clip-rule="evenodd" d="M20.0715 12.4936C20.0715 8.31515 16.6849 4.91568 12.4931 4.91568C8.31468 4.91568 4.91521 8.31515 4.91521 12.4936C4.91521 16.6849 8.31468 20.0715 12.4931 20.0715C16.6849 20.0715 20.0715 16.6849 20.0715 12.4936ZM19.9286 3.89012C19.2542 3.89012 18.709 4.43532 18.709 5.10972C18.709 5.7846 19.2542 6.3298 19.9286 6.3298C20.6035 6.3298 21.1487 5.7846 21.1487 5.10972C21.1487 4.43532 20.6035 3.89012 19.9286 3.89012ZM6.30377 2.13856H18.6962C20.993 2.13856 22.8614 4.00701 22.8614 6.30424V18.6962C22.8614 20.993 20.993 22.8614 18.6962 22.8614H6.30377C4.00654 22.8614 2.13856 20.993 2.13856 18.6962V6.30424C2.13856 4.00701 4.00654 2.13856 6.30377 2.13856ZM18.6962 0.75H6.30377C3.25452 0.75 0.75 3.24127 0.75 6.30424V18.6962C0.75 21.7455 3.25452 24.25 6.30377 24.25H18.6962C21.7587 24.25 24.25 21.7455 24.25 18.6962V6.30424C24.25 3.24127 21.7587 0.75 18.6962 0.75ZM6.49828 12.4936C6.49828 9.18454 9.18454 6.48551 12.4931 6.48551C15.8155 6.48551 18.5012 9.18454 18.5012 12.4936C18.5012 15.815 15.8155 18.5017 12.4931 18.5017C9.18454 18.5017 6.49828 15.815 6.49828 12.4936Z" fill="white"/>
</svg>
