<svg width="21" height="21" viewBox="0 0 21 21" fill="none" xmlns="http://www.w3.org/2000/svg">
<path fill-rule="evenodd" clip-rule="evenodd" d="M2.61584 0.21875C1.29123 0.21875 0.21875 1.2912 0.21875 2.61578C0.21875 3.94036 1.29123 5.01282 2.61584 5.01282C3.94045 5.01282 5.01246 3.94036 5.01246 2.61578C5.01246 1.2912 3.94045 0.21875 2.61584 0.21875ZM20.6681 11.2824C20.3524 8.68336 19.1672 7.06893 15.6599 7.06893C13.6033 7.06893 12.2157 7.82577 11.6355 8.92352H11.5725V7.06893H7.74956V20.7812H11.7492V13.9821C11.7492 12.1901 12.102 10.4625 14.2981 10.4625C16.5047 10.4625 16.6685 12.5057 16.6685 14.1077V20.7812H20.7812V13.2501C20.7812 12.5435 20.7431 11.8878 20.6681 11.2824ZM0.21875 10.7146V20.7812H5.01246V7.06893H0.21875V10.7146Z" fill="white"/>
</svg>
