<svg width="25" height="20" viewBox="0 0 25 20" fill="none" xmlns="http://www.w3.org/2000/svg">
<path fill-rule="evenodd" clip-rule="evenodd" d="M24.25 2.48401C23.3957 2.85983 22.4661 3.11855 21.4849 3.24792C22.4912 2.63982 23.2553 1.70737 23.6132 0.568124C22.6827 1.12476 21.6378 1.52607 20.5418 1.74608C19.674 0.801354 18.4135 0.21875 17.0116 0.21875C14.3608 0.21875 12.1939 2.38062 12.1939 5.03397C12.1939 5.42253 12.2581 5.78512 12.3343 6.13497C8.32025 5.94045 4.76404 4.02456 2.39355 1.09879C1.98591 1.82398 1.7312 2.63982 1.7312 3.51986C1.7312 5.20252 2.59759 6.67839 3.87162 7.53294C3.08192 7.51972 2.34242 7.29971 1.69309 6.93711C1.69309 6.96308 1.69309 6.9763 1.69309 7.00179C1.69309 7.62311 1.80789 8.19297 2.02403 8.73639C2.61061 10.2514 3.94878 11.3902 5.56769 11.7141C5.14611 11.8307 4.73848 11.8949 4.29273 11.8949C3.98689 11.8949 3.68105 11.8562 3.3873 11.7915C4.01246 13.7074 5.78336 15.1054 7.88706 15.1573C6.22957 16.4519 4.16538 17.2158 1.90968 17.2158C1.51414 17.2158 1.14508 17.1893 0.75 17.1506C2.89088 18.5104 5.42685 19.3125 8.14177 19.3125C15.6734 19.3125 20.3252 14.0181 21.5351 8.51638C21.7526 7.53294 21.8539 6.56177 21.8539 5.60383C21.8539 5.39656 21.8539 5.17703 21.8539 4.98251C22.7845 4.29651 23.6132 3.44196 24.25 2.48401Z" fill="white"/>
</svg>
